<svg xmlns="http://www.w3.org/2000/svg" xmlns:xlink="http://www.w3.org/1999/xlink" version="1.1" x="0px" y="0px" viewBox="0 0 100 125" enable-background="new 0 0 100 100" xml:space="preserve"><path d="M72.777,76.84c0.199-0.458,0.311-0.968,0.311-1.502V53.725c0-0.275-0.029-0.536-0.084-0.793  c-0.404-2.25-2.369-3.961-4.748-3.961H52.919v-19.21c0-3.714-3.025-6.724-6.758-6.724c-2.453,0-4.594,1.304-5.777,3.25  L30.319,38.221c-0.46,0.546-0.68,1.212-0.676,1.871c0,0.363,0.065,0.729,0.21,1.085l3.342,8.233C23.795,52.461,17,61.254,17,71.626  C17,84.534,27.517,95,40.489,95c12.972,0,23.49-10.466,23.49-23.374c0-4.831-1.479-9.321-4.002-13.049h5.389v16.761  c0,0.54,0.115,1.054,0.316,1.521c-0.672,0.084-1.191,0.647-1.191,1.339c0,0.749,0.609,1.355,1.361,1.355h13.703v3.416  c0,1.869-1.527,3.39-3.406,3.39c-0.047,0-0.09,0.008-0.137,0.012c-0.715-3.129-3.525-5.473-6.885-5.473  c-3.898,0-7.066,3.156-7.066,7.033s3.168,7.028,7.066,7.028c3.504,0,6.42-2.555,6.965-5.896c0.02,0.002,0.035,0.007,0.057,0.007  c3.381,0,6.133-2.736,6.133-6.101v-6.13H72.777z M37.229,58.371c0.791,0.634,1.894,0.836,2.904,0.433  c0.448-0.183,0.824-0.461,1.118-0.806c7.211,0.396,12.957,6.357,12.957,13.628c0,7.528-6.154,13.652-13.718,13.652  c-7.563,0-13.716-6.124-13.716-13.652C26.772,65.219,31.234,59.831,37.229,58.371z M35.869,40.606l3.535-4.192v11.868  c-0.138,0.006-0.272,0.016-0.409,0.025L35.869,40.606z M59.21,71.626c0,10.273-8.398,18.628-18.721,18.628  c-10.322,0-18.721-8.354-18.721-18.628c0-8.364,5.574-15.46,13.22-17.806l0.857,2.112c-6.818,1.996-11.798,8.265-11.798,15.693  c0,9.038,7.361,16.36,16.441,16.36c9.081,0,16.441-7.322,16.441-16.36c0-5.329-2.562-10.062-6.526-13.049h3.428  C57.156,61.941,59.21,66.55,59.21,71.626z M69.127,91.573c-2.021,0-3.662-1.636-3.662-3.642c0-2.012,1.641-3.644,3.662-3.644  c2.018,0,3.66,1.632,3.66,3.644C72.787,89.938,71.145,91.573,69.127,91.573z"/><ellipse cx="49.267" cy="12.685" rx="7.722" ry="7.685"/><text x="0" y="115" fill="#000000" font-size="5px" font-weight="bold" font-family="'Helvetica Neue', Helvetica, Arial-Unicode, Arial, Sans-serif">Created by Fabio Meroni</text><text x="0" y="120" fill="#000000" font-size="5px" font-weight="bold" font-family="'Helvetica Neue', Helvetica, Arial-Unicode, Arial, Sans-serif">from the Noun Project</text></svg>