<svg xmlns="http://www.w3.org/2000/svg" xmlns:xlink="http://www.w3.org/1999/xlink" version="1.1" x="0px" y="0px" viewBox="0 0 100 125" style="enable-background:new 0 0 100 100;" xml:space="preserve"><path d="M45.9,4.3c9.3,0,19.1,3.8,26.9,11.9c7.2,7.4,8.6,17.9,9,20.5c1.6,11.1,5.8,12.4,5.6,13.7c0,0.2-0.1,0.4-0.1,0.6  c-0.8,2.3-5.7,4.3-5.7,4.3l2.5,3.9c0,0-3.5,1.7-5.2,1.8c0.5,0.4,3.1,1.3,3.8,1.4c-0.9,1.9-2.2,2.7-3.5,5.3c-0.2,3.3,0.9,4.9-1.1,7.7  C76.5,77.7,73.8,78,71,78c-0.8,0-1.7,0-2.5,0c-0.7,0-1.3,0-1.9,0.1c-2.4,0.2-3.1,0.5-3.8,3c-1.4,5.3,3.4,9.7,4.9,14.6H28.9  c0.8-7.3,1.7-14.6,0-21.2c-1.6-2.6-3.1-5.2-4.8-7.7c-0.5-0.8-2.6-3.3-3.4-5c-12.5-15-10.2-37,4.5-50C30.9,6.9,38.2,4.3,45.9,4.3   M45.9,1.8c-8.4,0-16.3,2.9-22.3,8.2c-15.9,13.9-18.1,37.3-5,53.3c0.7,1.4,1.9,2.9,2.7,4.1c0.3,0.4,0.6,0.8,0.7,0.9  c1.6,2.4,3.1,4.9,4.5,7.3c1.4,6.1,0.6,13.1-0.2,19.9L26,98.2h2.9h38.9h3.5l-1-3.3c-0.6-2-1.6-3.8-2.6-5.6c-1.6-2.8-2.9-5.2-2.3-7.7  c0.1-0.6,0.3-0.8,0.3-0.9c0.2,0,0.5-0.1,1.2-0.2c0.4,0,1-0.1,1.7-0.1c0.4,0,0.8,0,1.2,0c0.4,0,0.9,0,1.3,0c2.3,0,6.6,0,9.2-3.5  c2-2.7,1.8-4.9,1.6-6.8c0-0.6-0.1-1.1-0.1-1.8c0.5-0.9,1-1.6,1.5-2.2c0.6-0.7,1.2-1.5,1.7-2.6l1.2-2.5l1.6-0.7l-1.6-2.5l-0.9-1.5  c1.8-1,3.7-2.6,4.4-4.5c0.1-0.4,0.2-0.8,0.3-1.2c0.2-1.5-0.7-2.5-1.4-3.3c-1.1-1.4-3.2-3.9-4.3-11.1l0-0.2  c-1.3-9.2-4.6-16.5-9.6-21.7C66.7,6.3,56.5,1.8,45.9,1.8L45.9,1.8z M25.1,59c-2.1-1.5-3.6-4.2-4.8-6.4c-2.3-4.4-3.6-9.3-3.6-14.2  C16.8,21.7,30.3,8.1,47,8.1c5.9,0,11.8,1.8,16.8,5.1c3.3,2.2,8.6,6.2,7.2,10.9c-0.8,2.6-3.6,3.6-5.9,4.8c-3.3,1.7-6.7,3.4-9.7,5.7  c-6.6,4.9-9.2,12.9-14.9,18.7c-2.5,2.5-6.9,5.8-10.5,6.7C28.1,60.4,26.5,60,25.1,59z"/><text x="0" y="115" fill="#000000" font-size="5px" font-weight="bold" font-family="'Helvetica Neue', Helvetica, Arial-Unicode, Arial, Sans-serif">Created by Cindy Duong</text><text x="0" y="120" fill="#000000" font-size="5px" font-weight="bold" font-family="'Helvetica Neue', Helvetica, Arial-Unicode, Arial, Sans-serif">from the Noun Project</text></svg>