<svg xmlns:dc="http://purl.org/dc/elements/1.1/" xmlns:cc="http://creativecommons.org/ns#" xmlns:rdf="http://www.w3.org/1999/02/22-rdf-syntax-ns#" xmlns:svg="http://www.w3.org/2000/svg" xmlns="http://www.w3.org/2000/svg" xmlns:sodipodi="http://sodipodi.sourceforge.net/DTD/sodipodi-0.dtd" xmlns:inkscape="http://www.inkscape.org/namespaces/inkscape" viewBox="0 0 1488.189 2630.9055" version="1.1" x="0px" y="0px"><g transform="translate(0,1052.3622)"><path d="m 738.7303,-436.72863 c -389.03256,0 -705.204112,365.717579 -705.204112,451.684372 0,93.249658 316.171552,453.135948 705.204112,453.135948 393.3986,0 708.1116,-358.43009 708.1116,-453.135948 1.3147,-85.966793 -314.713,-451.684372 -708.1116,-451.684372 z m -81.5982,139.87864 c 81.5982,0 148.61862,62.64997 148.61862,145.70437 0,85.964005 -65.56794,151.53194537 -148.61862,151.53194537 -77.22403,0 -144.24354,-65.56794037 -144.24354,-151.53194537 1.30502,-83.0544 67.01951,-145.70437 144.24354,-145.70437 z m 514.3334,514.33251 c -93.2476,69.93838 -249.14924,158.81386 -432.7352,158.81386 -179.22016,0 -330.74747,-90.33353 -428.37035,-158.81386 C 196.70867,131.51665 135.51675,45.550775 119.48649,13.498614 c 16.03026,-30.597815 77.22218,-116.565534 190.87346,-198.158164 58.28231,-46.62899 139.87308,-97.62009 237.49132,-129.67411 -90.32983,62.64904 -155.90055,171.9308 -155.90055,292.864005 0,195.242065 155.90055,354.058715 354.06243,354.058715 190.87252,0 346.77505,-158.81665 346.77505,-354.058715 0,-120.933205 -58.2797,-230.214965 -151.53393,-292.864005 93.25423,34.96734 174.84503,87.42207 230.21123,129.67411 113.655,81.59263 174.8414,166.100439 190.8729,198.158164 -16.0315,32.052161 -77.2179,119.477946 -190.8729,203.983906 z" style="" fill="#000000"/></g><text x="0" y="2119.7244" fill="#000000" font-size="5px" font-weight="bold" font-family="'Helvetica Neue', Helvetica, Arial-Unicode, Arial, Sans-serif">Created by Javier Cezhkovic</text><text x="0" y="2124.7244" fill="#000000" font-size="5px" font-weight="bold" font-family="'Helvetica Neue', Helvetica, Arial-Unicode, Arial, Sans-serif">from the Noun Project</text></svg>