<svg style="position: absolute; width: 0; height: 0; overflow: hidden;" version="1.1" xmlns="http://www.w3.org/2000/svg" xmlns:xlink="http://www.w3.org/1999/xlink">
<defs>
<symbol id="icon-cognitive" viewBox="0 0 26 32">
<title>cognitive</title>
<path class="path1" d="M11.75 1.101c2.381 0 4.89 0.973 6.886 3.046 1.843 1.894 2.202 4.582 2.304 5.248 0.41 2.842 1.485 3.174 1.434 3.507 0 0.051-0.026 0.102-0.026 0.154-0.205 0.589-1.459 1.101-1.459 1.101l0.64 0.998c0 0-0.896 0.435-1.331 0.461 0.128 0.102 0.794 0.333 0.973 0.358-0.23 0.486-0.563 0.691-0.896 1.357-0.051 0.845 0.23 1.254-0.282 1.971-0.41 0.589-1.101 0.666-1.818 0.666-0.205 0-0.435 0-0.64 0-0.179 0-0.333 0-0.486 0.026-0.614 0.051-0.794 0.128-0.973 0.768-0.358 1.357 0.87 2.483 1.254 3.738h-9.933c0.205-1.869 0.435-3.738 0-5.427-0.41-0.666-0.794-1.331-1.229-1.971-0.128-0.205-0.666-0.845-0.87-1.28-3.2-3.84-2.611-9.472 1.152-12.8 1.459-1.254 3.328-1.92 5.299-1.92zM11.75 0.461c-2.15 0-4.173 0.742-5.709 2.099-4.070 3.558-4.634 9.549-1.28 13.645 0.179 0.358 0.486 0.742 0.691 1.050 0.077 0.102 0.154 0.205 0.179 0.23 0.41 0.614 0.794 1.254 1.152 1.869 0.358 1.562 0.154 3.354-0.051 5.094l-0.077 0.691h11.597l-0.256-0.845c-0.154-0.512-0.41-0.973-0.666-1.434-0.41-0.717-0.742-1.331-0.589-1.971 0.026-0.154 0.077-0.205 0.077-0.23 0.051 0 0.128-0.026 0.307-0.051 0.102 0 0.256-0.026 0.435-0.026 0.102 0 0.205 0 0.307 0s0.23 0 0.333 0c0.589 0 1.69 0 2.355-0.896 0.512-0.691 0.461-1.254 0.41-1.741 0-0.154-0.026-0.282-0.026-0.461 0.128-0.23 0.256-0.41 0.384-0.563 0.154-0.179 0.307-0.384 0.435-0.666l0.307-0.64 0.41-0.179-0.41-0.64-0.23-0.384c0.461-0.256 0.947-0.666 1.126-1.152 0.026-0.102 0.051-0.205 0.077-0.307 0.051-0.384-0.179-0.64-0.358-0.845-0.282-0.358-0.819-0.998-1.101-2.842v-0.051c-0.333-2.355-1.178-4.224-2.458-5.555-2.048-2.048-4.659-3.2-7.373-3.2v0zM6.426 15.104c-0.538-0.384-0.922-1.075-1.229-1.638-0.589-1.126-0.922-2.381-0.922-3.635 0.026-4.275 3.482-7.757 7.757-7.757 1.51 0 3.021 0.461 4.301 1.306 0.845 0.563 2.202 1.587 1.843 2.79-0.205 0.666-0.922 0.922-1.51 1.229-0.845 0.435-1.715 0.87-2.483 1.459-1.69 1.254-2.355 3.302-3.814 4.787-0.64 0.64-1.766 1.485-2.688 1.715-0.486 0.102-0.896 0-1.254-0.256z"></path>
</symbol>
<symbol id="icon-hearing" viewBox="0 0 26 32">
<title>hearing</title>
<path class="path1" d="M21.065 17.633c-0.244-0.030-0.465 0.144-0.495 0.388-0.003 0.025-0.334 2.529-2.69 2.847-3.006 0.405-3.675-1.26-4.117-2.362l-0.025-0.062c-0.404-1.005-0.699-1.912-0.913-2.575-0.232-0.714-0.372-1.146-0.53-1.377-0.125-0.184-3.033-4.535 0.65-8.163 1.285-1.267 3.025-1.64 4.654-0.997 1.581 0.624 2.604 2.018 2.67 3.638 0.010 0.245 0.216 0.435 0.463 0.426 0.245-0.010 0.436-0.217 0.426-0.462-0.080-1.947-1.349-3.685-3.233-4.429-1.966-0.776-4.061-0.331-5.605 1.191-1.594 1.57-2.311 3.525-2.076 5.654 0.216 1.953 1.135 3.378 1.317 3.644 0.086 0.126 0.247 0.623 0.418 1.149 0.219 0.675 0.519 1.599 0.934 2.632l0.025 0.062c0.431 1.074 1.198 2.983 4.052 2.983 0.311 0 0.647-0.023 1.009-0.071 2.424-0.327 3.319-2.511 3.453-3.621 0.029-0.244-0.144-0.465-0.388-0.495z"></path>
<path class="path2" d="M19.205 12.856c0.147-0.040 0.325 0.038 0.377 0.069 0.208 0.13 0.483 0.067 0.613-0.141s0.067-0.483-0.141-0.613c-0.052-0.033-0.527-0.315-1.065-0.177-0.234 0.060-0.565 0.224-0.813 0.667-0.456 0.814 0.080 1.776 0.435 2.413 0.088 0.158 0.198 0.355 0.216 0.425 0.116 0.453-0.032 0.958-0.352 1.203-0.356 0.272-0.785 0.127-1.082-0.043-1.315-0.75-1.753-2.076-1.303-3.942 0.482-1.999 1.994-2.392 2.351-2.458 0.138 0.432 0.176 0.773 0.177 0.78 0.025 0.244 0.243 0.422 0.487 0.398s0.422-0.243 0.398-0.487c-0.008-0.080-0.212-1.968-1.504-2.886-0.671-0.476-1.493-0.603-2.444-0.376-1.445 0.346-2.299 1.494-2.47 3.323-0.121 1.295 0.147 2.478 0.158 2.527 0.048 0.206 0.23 0.345 0.433 0.345 0.033 0 0.066-0.004 0.1-0.011 0.239-0.055 0.389-0.293 0.334-0.533-0.003-0.011-0.249-1.109-0.137-2.264 0.137-1.422 0.739-2.271 1.789-2.522 0.699-0.167 1.261-0.091 1.719 0.233 0.243 0.173 0.436 0.4 0.589 0.645-0.714 0.186-2.305 0.845-2.843 3.076-0.69 2.861 0.559 4.256 1.727 4.923 0.363 0.207 0.729 0.31 1.075 0.31 0.359 0 0.697-0.111 0.987-0.333 0.611-0.466 0.881-1.323 0.674-2.132-0.047-0.181-0.158-0.382-0.3-0.636-0.259-0.464-0.649-1.166-0.436-1.546 0.113-0.201 0.219-0.23 0.254-0.24z"></path>
<path class="path3" d="M9.033 16.879l-3.004 2.332c-0.232 0.18-0.273 0.514-0.094 0.745 0.104 0.135 0.261 0.206 0.42 0.206 0.114 0 0.229-0.037 0.325-0.112l3.004-2.332c0.232-0.18 0.273-0.514 0.094-0.745s-0.513-0.273-0.745-0.093z"></path>
<path class="path4" d="M8.368 12.269c-0.023-0.286-0.273-0.5-0.56-0.477l-5.258 0.42c-0.286 0.023-0.5 0.273-0.477 0.56 0.022 0.272 0.249 0.479 0.518 0.479 0.014 0 0.028-0.001 0.042-0.002l5.258-0.42c0.286-0.023 0.499-0.273 0.477-0.56z"></path>
<path class="path5" d="M4.613 6.034l3.847 1.11c0.052 0.015 0.105 0.023 0.157 0.023 0.245 0 0.472-0.161 0.543-0.409 0.087-0.3-0.087-0.614-0.387-0.7l-3.847-1.11c-0.3-0.087-0.614 0.087-0.7 0.386s0.086 0.614 0.386 0.7z"></path>
</symbol>
<symbol id="icon-physical" viewBox="0 0 26 32">
<title>physical</title>
<path class="path1" d="M18.631 19.671c0.051-0.117 0.080-0.248 0.080-0.384v-5.533c0-0.070-0.007-0.137-0.021-0.203-0.103-0.576-0.606-1.014-1.215-1.014h-3.926v-4.918c0-0.951-0.774-1.721-1.73-1.721-0.628 0-1.176 0.334-1.479 0.832l-2.577 3.055c-0.118 0.14-0.174 0.31-0.173 0.479 0 0.093 0.017 0.187 0.054 0.278l0.856 2.108c-2.406 0.781-4.146 3.032-4.146 5.687 0 3.304 2.692 5.984 6.013 5.984s6.013-2.679 6.013-5.984c0-1.237-0.379-2.386-1.024-3.341h1.38v4.291c0 0.138 0.029 0.27 0.081 0.389-0.172 0.021-0.305 0.166-0.305 0.343 0 0.192 0.156 0.347 0.348 0.347h3.508v0.875c0 0.478-0.391 0.868-0.872 0.868-0.012 0-0.023 0.002-0.035 0.003-0.183-0.801-0.902-1.401-1.763-1.401-0.998 0-1.809 0.808-1.809 1.8s0.811 1.799 1.809 1.799c0.897 0 1.644-0.654 1.783-1.509 0.005 0 0.009 0.002 0.015 0.002 0.866 0 1.57-0.7 1.57-1.562v-1.569h-2.433zM9.531 14.943c0.203 0.162 0.485 0.214 0.743 0.111 0.115-0.047 0.211-0.118 0.286-0.206 1.846 0.101 3.317 1.627 3.317 3.489 0 1.927-1.575 3.495-3.512 3.495s-3.511-1.568-3.511-3.495c-0-1.64 1.142-3.020 2.676-3.393zM9.182 10.395l0.905-1.073v3.038c-0.035 0.002-0.070 0.004-0.105 0.006l-0.8-1.971zM15.158 18.336c0 2.63-2.15 4.769-4.793 4.769s-4.793-2.139-4.793-4.769c0-2.141 1.427-3.958 3.384-4.558l0.219 0.541c-1.745 0.511-3.020 2.116-3.020 4.017 0 2.314 1.884 4.188 4.209 4.188s4.209-1.874 4.209-4.188c0-1.364-0.656-2.576-1.671-3.341h0.878c0.851 0.861 1.377 2.041 1.377 3.341zM17.697 23.443c-0.517 0-0.937-0.419-0.937-0.932 0-0.515 0.42-0.933 0.937-0.933s0.937 0.418 0.937 0.933c0 0.514-0.42 0.932-0.937 0.932z"></path>
<path class="path2" d="M14.589 3.247c0 1.087-0.885 1.967-1.977 1.967s-1.977-0.881-1.977-1.967c0-1.087 0.885-1.967 1.977-1.967s1.977 0.881 1.977 1.967z"></path>
</symbol>
<symbol id="icon-vision" viewBox="0 0 18 32">
<title>vision</title>
<path class="path1" d="M8.985 7.488c-4.732 0-8.577 4.448-8.577 5.494 0 1.134 3.846 5.512 8.577 5.512 4.785 0 8.613-4.36 8.613-5.512 0.016-1.046-3.828-5.494-8.613-5.494zM7.993 9.189c0.992 0 1.808 0.762 1.808 1.772 0 1.046-0.797 1.843-1.808 1.843-0.939 0-1.754-0.797-1.754-1.843 0.016-1.010 0.815-1.772 1.754-1.772zM14.249 15.445c-1.134 0.851-3.030 1.932-5.263 1.932-2.18 0-4.023-1.099-5.21-1.932-1.382-1.046-2.127-2.091-2.322-2.481 0.195-0.372 0.939-1.418 2.322-2.41 0.709-0.567 1.701-1.187 2.889-1.577-1.099 0.762-1.896 2.091-1.896 3.562 0 2.375 1.896 4.306 4.306 4.306 2.322 0 4.218-1.932 4.218-4.306 0-1.471-0.709-2.8-1.843-3.562 1.134 0.425 2.127 1.063 2.8 1.577 1.382 0.992 2.127 2.020 2.322 2.41-0.195 0.39-0.939 1.453-2.322 2.481z"></path>
</symbol>
</defs>
</svg>
